<?xml version="1.0" encoding="UTF-8"?>
<svg width="50px" height="60px" viewBox="0 0 50 60" version="1.1" xmlns="http://www.w3.org/2000/svg" xmlns:xlink="http://www.w3.org/1999/xlink">
    <!-- Generator: Sketch 62 (91390) - https://sketch.com -->
    <title>drop-cohesion</title>
    <desc>Created with Sketch.</desc>
    <g id="Page-1" stroke="none" stroke-width="1" fill="none" fill-rule="evenodd">
        <g id="drop-cohesion" fill="#26A4DD" fill-rule="nonzero">
            <path d="M23.4494198,0 C21.2639575,8.87234043 0,12.5395745 0,33.5374468 C0,45.7517021 10.3957126,59.1489362 25.0146834,59.1489362 C38.9221638,58.8587745 50.0350518,47.4673035 49.9999169,33.5374468 C50.0293667,11.0904255 26.4913471,9.19765957 23.4494198,0 Z M14.4365822,26.0729144 C10.1791292,26.0159516 6.68158777,29.4198958 6.62460465,33.6758367 C6.56762153,37.9317775 9.97277511,41.4280768 14.2302281,41.4850398 L11.0759578,45.9348121 C5.73804756,44.4080945 2.01522752,39.5865503 1.89003986,34.0378337 C1.7648522,28.4891171 5.26643441,23.504695 10.5300619,21.7389601 C15.7936893,19.9732252 21.5942498,21.8371534 24.842726,26.3381326 L21.6589766,30.8468423 C20.4832372,27.9586238 17.6738087,26.0707989 14.5544988,26.0729144 L14.4365822,26.0729144 Z M35.3694065,46.2345602 C28.4364645,46.2519484 22.7710381,40.7121028 22.6414718,33.7887553 L31.3047747,21.461482 C32.6116876,21.0078106 33.9858123,20.7773978 35.3694065,20.779926 C40.0686551,20.5533853 44.5113374,22.9284349 46.9288917,26.9596049 C49.3464459,30.9907749 49.3464459,36.0237113 46.9288917,40.0548813 C44.5113374,44.0860513 40.0686551,46.4611009 35.3694065,46.2345602 L35.3694065,46.2345602 Z M35.3772997,25.7990041 C31.1222828,25.7990041 27.67291,29.2501002 27.67291,33.5072431 C27.67291,37.764386 31.1222828,41.2154821 35.3772997,41.2154821 C39.6323167,41.2154821 43.0816894,37.764386 43.0816894,33.5072431 C43.0816894,29.273061 39.6682805,25.8314499 35.4363372,25.7990041 L35.3772997,25.7990041 Z"></path>
        </g>
    </g>
</svg>