<svg xmlns="http://www.w3.org/2000/svg" width="50" height="60" viewBox="0 0 50 60"><path fill="#26a4dd" d="M23.5 0C21.3 9 0 12.8 0 34c.1 14.1 11.2 25.5 25 26 13.9-.3 25-11.9 25-26C50 11.2 26.5 9.3 23.5 0zm17.2 42.8c0 .8-.7 1.5-1.5 1.5H10.8c-.8 0-1.5-.7-1.5-1.5V24.5c0-.8.7-1.5 1.5-1.5h28.4c.8 0 1.5.7 1.5 1.5v18.3zM14.8 26c-1 0-1.8.8-1.8 1.8s.8 1.9 1.8 1.9 1.8-.8 1.8-1.8c0-1.1-.8-2-1.8-1.9h-.1.1zm5 0c-1-.1-1.9.6-2.1 1.6-.1 1 .5 1.9 1.5 2.1 1 .1 1.9-.6 2.1-1.6v-.2c0-1-.7-1.8-1.7-1.8h.2zm5 0c-1 0-1.8.8-1.8 1.9 0 1 .8 1.9 1.8 1.9s1.8-.8 1.8-1.9c.1-1.1-.7-1.9-1.8-1.9z"/></svg>